<svg xmlns="http://www.w3.org/2000/svg" xmlns:xlink="http://www.w3.org/1999/xlink" width="500" zoomAndPan="magnify" viewBox="0 0 375 374.999991" height="500" preserveAspectRatio="xMidYMid meet" version="1.0"><defs><g/><clipPath id="c9f7197664"><path d="M 32.726562 1 L 340 1 L 340 375 L 32.726562 375 Z M 32.726562 1 " clip-rule="nonzero"/></clipPath><clipPath id="a9d4234bab"><path d="M 167.203125 165.726562 L 308 165.726562 L 308 300.726562 L 167.203125 300.726562 Z M 167.203125 165.726562 " clip-rule="nonzero"/></clipPath></defs><g clip-path="url(#c9f7197664)"><path fill="#a6a6a6" d="M 337.34375 286.136719 L 208.671875 13.070312 C 207.871094 11.390625 206.863281 9.84375 205.644531 8.4375 C 204.429688 7.03125 203.046875 5.808594 201.496094 4.773438 C 199.949219 3.742188 198.292969 2.929688 196.527344 2.34375 C 194.757812 1.757812 192.945312 1.417969 191.085938 1.320312 C 190.160156 1.257812 189.234375 1.257812 188.304688 1.324219 C 187.378906 1.386719 186.460938 1.515625 185.550781 1.703125 C 184.640625 1.894531 183.75 2.144531 182.875 2.457031 C 182 2.769531 181.148438 3.136719 180.324219 3.5625 C 179.5 3.992188 178.707031 4.472656 177.949219 5.007812 C 177.1875 5.542969 176.46875 6.128906 175.789062 6.761719 C 175.113281 7.394531 174.480469 8.070312 173.890625 8.792969 C 173.304688 9.511719 172.769531 10.265625 172.285156 11.058594 L 32.726562 236.945312 C 32.199219 237.792969 31.734375 238.675781 31.332031 239.589844 C 30.929688 240.503906 30.59375 241.441406 30.324219 242.402344 C 30.054688 243.367188 29.851562 244.34375 29.722656 245.332031 C 29.589844 246.324219 29.53125 247.316406 29.542969 248.316406 C 29.550781 249.316406 29.632812 250.308594 29.785156 251.296875 C 29.933594 252.285156 30.15625 253.253906 30.445312 254.210938 C 30.734375 255.167969 31.089844 256.097656 31.511719 257.003906 C 31.933594 257.910156 32.414062 258.78125 32.960938 259.621094 L 101.191406 365.210938 C 101.832031 366.195312 102.550781 367.121094 103.339844 367.992188 C 104.128906 368.863281 104.984375 369.664062 105.902344 370.394531 C 106.824219 371.128906 107.792969 371.78125 108.820312 372.359375 C 109.84375 372.933594 110.90625 373.425781 112.011719 373.832031 C 113.113281 374.234375 114.242188 374.550781 115.394531 374.773438 C 116.550781 375 117.714844 375.128906 118.890625 375.167969 C 120.0625 375.203125 121.234375 375.148438 122.398438 374.996094 C 123.566406 374.847656 124.710938 374.601562 125.839844 374.269531 L 323.84375 315.738281 C 325.335938 315.304688 326.765625 314.714844 328.128906 313.972656 C 329.492188 313.230469 330.761719 312.351562 331.9375 311.339844 C 333.113281 310.324219 334.167969 309.195312 335.101562 307.957031 C 336.035156 306.714844 336.824219 305.390625 337.472656 303.980469 C 338.113281 302.578125 338.59375 301.121094 338.914062 299.613281 C 339.238281 298.105469 339.394531 296.582031 339.382812 295.039062 C 339.371094 293.5 339.195312 291.976562 338.851562 290.472656 C 338.511719 288.96875 338.011719 287.523438 337.351562 286.128906 Z M 308.535156 297.847656 L 140.511719 347.5 C 135.386719 349.023438 130.46875 344.582031 131.535156 339.414062 L 191.5625 52.175781 C 192.6875 46.800781 200.113281 45.953125 202.460938 50.925781 L 313.585938 286.746094 C 313.832031 287.269531 314.015625 287.816406 314.144531 288.382812 C 314.273438 288.949219 314.335938 289.519531 314.339844 290.101562 C 314.34375 290.679688 314.28125 291.253906 314.160156 291.820312 C 314.039062 292.386719 313.859375 292.933594 313.617188 293.464844 C 313.378906 293.992188 313.082031 294.488281 312.734375 294.949219 C 312.386719 295.414062 311.992188 295.835938 311.554688 296.214844 C 311.113281 296.59375 310.636719 296.921875 310.128906 297.195312 C 309.617188 297.472656 309.082031 297.6875 308.523438 297.847656 Z M 308.535156 297.847656 " fill-opacity="1" fill-rule="evenodd"/></g><g clip-path="url(#a9d4234bab)"><path fill="#a6a6a6" d="M 207.039062 280.230469 C 201.554688 275.910156 195.707031 271.769531 191.707031 265.941406 C 183.292969 255.65625 176.816406 243.75 172.386719 231.242188 C 169.710938 223.105469 168.792969 214.382812 165.339844 206.5625 C 161.730469 200.878906 165.960938 194.671875 172.175781 192.867188 C 174.941406 192.332031 179.808594 189.71875 173.933594 191.589844 C 168.667969 195.457031 168.160156 188.078125 173.5625 187.609375 C 177.246094 187.121094 178.601562 184.101562 177.339844 181.382812 C 173.382812 178.800781 186.933594 175.964844 180.113281 172.109375 C 173.015625 164.441406 190.046875 162.964844 185.84375 171.675781 C 184.839844 178.371094 197.75 170.445312 194.753906 178.179688 C 197.796875 181.894531 206.15625 179.027344 205.945312 184.238281 C 210.378906 184.542969 211.902344 188.277344 216.0625 188.5625 C 220.378906 190.515625 228.199219 192.050781 229.667969 196.917969 C 225.386719 200.308594 215.476562 189.910156 215 199.300781 C 216.292969 213.171875 215.964844 227.464844 221.03125 240.671875 C 223.429688 248.671875 229.242188 254.96875 234.492188 261.199219 C 239.515625 267.296875 246.320312 271.59375 253.257812 275.210938 C 259.339844 278.082031 265.898438 279.984375 272.53125 281.183594 C 275.21875 279.125 279.964844 271.46875 284.160156 274.695312 C 284.359375 278.324219 275.835938 282.28125 283.757812 281.878906 C 288.414062 280.472656 291.640625 285.480469 295.472656 280.960938 C 299.003906 285.148438 310.148438 278.289062 307.636719 286.84375 C 304.238281 289.039062 299.28125 287.714844 295.882812 290.734375 C 290.273438 287.929688 285.804688 293.242188 279.59375 292.570312 C 272.699219 293.808594 265.679688 294.304688 258.691406 294.316406 C 247.21875 293.410156 235.503906 293.027344 224.589844 289.027344 C 218.441406 287.238281 212.445312 283.734375 207.039062 280.230469 Z M 216.726562 284.433594 C 222.730469 287.03125 228.601562 289.769531 235.179688 290.597656 C 245.617188 292.046875 256.398438 294.285156 266.871094 292.246094 C 262.132812 290.105469 257.230469 293.078125 252.507812 290.714844 C 246.84375 291.933594 240.765625 290.402344 235.003906 289.648438 C 228.457031 286.726562 221.386719 284.722656 215.257812 280.929688 C 207.59375 278.125 219.21875 284.523438 221.289062 285.042969 C 226.078125 287.761719 216.023438 283.644531 214.601562 282.515625 C 210.589844 280.261719 210.078125 280.734375 214.207031 283.019531 C 215.035156 283.507812 215.855469 284.019531 216.726562 284.433594 Z M 205.304688 276.351562 C 211.125 278.507812 205.277344 272.257812 202.617188 272.617188 C 201.433594 270.566406 198.101562 269.269531 200.453125 268.171875 C 196.226562 269.640625 196.023438 262.585938 194.039062 263.59375 C 189.566406 262.179688 192.300781 257.171875 186.96875 254.09375 C 186.484375 250.855469 181.675781 248.046875 180.148438 243.160156 C 179.472656 240.65625 174.714844 233.472656 177.636719 240.15625 C 180.121094 246.59375 184.496094 252.109375 188.136719 257.613281 C 190.960938 262.855469 194.300781 268.339844 199.445312 271.609375 C 201.183594 273.277344 202.855469 275.828125 205.304688 276.351562 Z M 188.546875 257.929688 C 188.75 257.050781 189.613281 259.835938 188.546875 257.929688 Z M 212.273438 278.9375 C 213.5625 278.359375 210.421875 278.207031 212.273438 278.9375 Z M 215.429688 280.089844 C 215.101562 278.5 213.988281 280.980469 215.429688 280.089844 Z M 219.382812 281.738281 C 221.261719 279.945312 216.480469 280.609375 219.382812 281.738281 Z M 226.160156 285.519531 C 227.300781 283.828125 222.5 284.882812 226.160156 285.519531 Z M 213.148438 276.441406 C 216.070312 274.546875 209.371094 276.414062 213.148438 276.441406 Z M 216.113281 277.921875 C 216.03125 276.921875 215.058594 278.371094 216.113281 277.921875 Z M 230.933594 287.179688 C 233.316406 288.6875 244.847656 290.480469 237.625 287.796875 C 236.414062 288.054688 224.238281 284.347656 230.933594 287.179688 Z M 207.410156 268.835938 C 207.175781 267.835938 203.707031 267.730469 207.410156 268.835938 Z M 214.304688 272.867188 C 216.101562 271.609375 210.578125 271.898438 214.304688 272.867188 Z M 220.109375 276.425781 C 222.6875 275.453125 215.929688 275.449219 220.109375 276.425781 Z M 204.597656 265.777344 C 207.394531 267.921875 215.875 266.054688 208.878906 264.496094 C 205.699219 262.800781 198.527344 261.636719 203.414062 265.519531 Z M 224.039062 277.65625 C 225.207031 275.671875 219.15625 276.519531 224.039062 277.65625 Z M 218.132812 272.957031 C 224.96875 274.890625 212.382812 268.625 216.445312 272.242188 L 217.347656 272.652344 Z M 229.976562 279.808594 C 236.449219 279.871094 224.128906 278.914062 229.976562 279.808594 Z M 202.109375 262.027344 C 201.855469 260.820312 200.511719 262.128906 202.109375 262.027344 Z M 240.925781 285.957031 C 241.097656 283.777344 238.816406 287.582031 240.925781 285.957031 Z M 213.15625 268.800781 C 212.765625 267.652344 211.136719 268.753906 213.15625 268.800781 Z M 202.722656 261.269531 C 206.4375 261.046875 197.632812 259.632812 202.722656 261.269531 Z M 190.359375 253.273438 C 189.898438 251.488281 186.320312 250.066406 190.359375 253.273438 Z M 222.8125 273.890625 C 222.132812 273.113281 222.492188 274.058594 222.8125 273.890625 Z M 243.007812 286.296875 C 242.945312 285.109375 241.90625 286.746094 243.007812 286.296875 Z M 221.023438 272.039062 C 221.390625 270.507812 217.855469 271.574219 221.023438 272.039062 Z M 205.976562 262.492188 C 208.742188 262.199219 201.546875 260.621094 205.976562 262.492188 Z M 231.429688 278.324219 C 235.738281 276.617188 227.230469 277.492188 231.429688 278.324219 Z M 218.191406 269.332031 C 223.15625 269.972656 212.28125 265.945312 217.101562 268.96875 Z M 235.449219 279.953125 C 240.085938 277.179688 238.558594 286.453125 243.316406 280.738281 C 248.007812 277.304688 239.261719 284.980469 245.046875 281.347656 C 249.230469 278.546875 255.410156 282.675781 259.3125 284.023438 C 262.117188 283.886719 264.847656 286.453125 267.726562 284.890625 C 273.265625 283.394531 256.890625 282.675781 261.183594 280.027344 C 256.117188 281.503906 252.371094 278.265625 249.878906 275.015625 C 244.191406 273.699219 237.621094 270.792969 234.78125 265.75 C 233.621094 263.863281 236.449219 266.019531 233.78125 262.929688 C 230.355469 259.878906 228.644531 256.414062 226.347656 252.707031 C 223.597656 251.242188 223.277344 246.921875 223 252.5625 C 223.023438 249.003906 219.683594 246.605469 218.867188 247.601562 C 218.851562 244.171875 222.441406 245.890625 219.929688 243.355469 C 219.386719 239.800781 217.609375 236.097656 217.074219 232.085938 C 216.242188 230.152344 216.957031 226.007812 214.234375 230.386719 C 213.246094 235.015625 213.90625 224.703125 215.449219 228.101562 C 217.472656 224.632812 214.71875 225.039062 214.609375 225.519531 C 215.925781 222.59375 215.445312 218.4375 214.265625 220.023438 C 214.96875 216.917969 215.375 208.601562 213.214844 210.078125 C 214.527344 206.828125 215.699219 195.222656 210.011719 199.648438 C 207.710938 199.683594 203.71875 200.484375 201.835938 201.425781 C 207.746094 204.6875 201.242188 202.601562 198.832031 202.082031 C 198.519531 205.101562 196.136719 203.800781 193.15625 203.828125 C 197.917969 204.417969 190.839844 208.699219 188.113281 207.035156 C 184.570312 208.730469 191.171875 212.964844 188.183594 214.273438 C 188.554688 216.246094 182.753906 213.5625 183.207031 218.117188 C 179.769531 216.667969 182.738281 223.523438 184.457031 221.203125 C 190.3125 222.792969 188.578125 226.402344 188.726562 229.839844 C 187.773438 231.835938 184.015625 225.136719 187.890625 225.445312 C 184.832031 220.476562 184.511719 223.648438 181.972656 225.957031 C 181.382812 226.125 188.445312 229.242188 184.015625 230.78125 C 187.914062 231.382812 188.027344 234.800781 188.820312 236.964844 C 191.164062 239.40625 190.679688 234.261719 193.488281 237.203125 C 191.710938 234.585938 184.085938 229.824219 190.226562 231.351562 C 190.191406 228.71875 189.113281 226.59375 190.996094 226.644531 C 192.863281 223.269531 189.046875 234.972656 193.246094 230.679688 C 194.40625 230.171875 194.699219 227.300781 196.789062 230.953125 C 199.820312 233.945312 197.882812 236.109375 193.601562 233.367188 C 194.367188 235.972656 199.328125 236.898438 198.394531 240.96875 C 199.382812 244.546875 200.765625 243.230469 201.972656 243.023438 C 202.917969 246.5 203.457031 243.945312 203.5 242.285156 C 207.828125 243.214844 206.8125 245.777344 208.167969 247.566406 C 211.152344 248.914062 203.898438 238.429688 209.019531 244.414062 C 214.40625 249.285156 211.042969 251.316406 206.207031 250.539062 C 209.265625 250.289062 210.25 254.679688 214.082031 254.527344 C 217.570312 256.191406 219.9375 262.574219 213.917969 259.914062 C 211.832031 258.03125 204.445312 255.707031 210.480469 259.289062 C 216.046875 261.875 220.476562 263.417969 225.851562 266.660156 C 229.695312 269.40625 231.355469 272.554688 232.8125 273.179688 C 229.578125 274.722656 223.074219 271.945312 227.90625 271.09375 C 224.890625 270.546875 221.5 269.019531 224.386719 272.777344 C 226.84375 274.832031 233.085938 274.613281 234.207031 274.847656 C 233.257812 276.9375 231.628906 277.105469 234.242188 277.265625 C 231.324219 278.824219 235.179688 279.066406 235.449219 279.953125 Z M 229.484375 263.085938 C 227.707031 261.226562 227.246094 257.746094 229.167969 260.773438 C 230.152344 261.171875 232.320312 266.460938 229.484375 263.085938 Z M 248.914062 275.441406 C 250.019531 275.371094 248.945312 276.285156 248.914062 275.441406 Z M 226.683594 258.527344 C 226.609375 255.71875 227.320312 260.695312 226.683594 258.527344 Z M 224.75 255.929688 C 222.515625 251.609375 227.5625 257.152344 224.75 255.929688 Z M 201.34375 239.757812 C 202.65625 239.40625 201.992188 242.003906 201.34375 239.757812 Z M 219.972656 249.863281 C 220.777344 246.832031 220.917969 252.40625 219.972656 249.863281 Z M 206.8125 240.703125 C 205.886719 239.03125 208.75 242.273438 206.8125 240.703125 Z M 218.105469 244.328125 C 215.988281 239.585938 219.605469 241.734375 218.574219 245.101562 Z M 198.628906 231.324219 C 197.683594 229.769531 196.121094 225.203125 196.625 223.808594 C 197.078125 226.078125 201.449219 233.578125 198.765625 226.914062 C 195.804688 221.328125 202.308594 228.726562 202.976562 230.121094 C 203.289062 231.507812 201.148438 229.742188 202.597656 232.992188 C 199.953125 229.292969 201.039062 235.039062 198.628906 231.324219 Z M 192.613281 227.171875 C 192.859375 223.554688 193.988281 229.652344 192.613281 227.171875 Z M 195.320312 228.105469 C 196.609375 225.375 197.507812 231.914062 195.320312 228.105469 Z M 188.804688 223.0625 C 186.566406 220.832031 184.945312 218.777344 188.914062 221.679688 C 190.4375 221.738281 185.515625 217.007812 189.28125 220.175781 C 193.238281 220.898438 191.234375 226.675781 188.804688 223.0625 Z M 192.226562 222.976562 C 193.527344 221.683594 192.917969 224.246094 192.226562 222.976562 Z M 194.332031 223.648438 C 192.359375 219.949219 196.726562 225.203125 194.332031 223.648438 Z M 190.148438 219.648438 C 183.636719 213.839844 198.332031 222.679688 191.210938 220.722656 Z M 208.8125 230.5 C 205.992188 228.808594 208.0625 218.589844 209.027344 225.578125 C 211.769531 224.691406 208.875 229.191406 210.917969 229.144531 C 210.597656 231.984375 209.683594 233.003906 208.8125 230.5 Z M 215.71875 234.585938 C 215.992188 231.507812 216.296875 236.695312 215.71875 234.585938 Z M 214.519531 233.398438 C 214.828125 232.082031 214.546875 234.949219 214.519531 233.398438 Z M 191.425781 217.738281 C 187.238281 211.957031 203.585938 223.585938 194.105469 219.203125 C 193.117188 218.945312 191.921875 218.851562 191.425781 217.738281 Z M 204.71875 224.792969 C 204.324219 219.925781 205.601562 225.601562 204.71875 224.792969 Z M 214.8125 231.277344 C 215.59375 228.503906 214.871094 233.113281 214.8125 231.277344 Z M 192.066406 215.535156 C 194.554688 215 202.375 219.902344 195.195312 216.933594 C 194.398438 216.050781 192.695312 216.449219 192.066406 215.53125 Z M 213.425781 226.1875 C 213.691406 221.210938 214.914062 223.21875 213.4375 226.902344 Z M 193.917969 213.800781 C 194.933594 212.3125 191.226562 207.074219 194.449219 211.921875 C 195.847656 213.03125 198.484375 213.777344 196.152344 214.246094 C 199.820312 217.480469 195.261719 215.121094 193.917969 213.800781 Z M 212.371094 224.636719 C 213.070312 218.964844 212.988281 227.957031 212.371094 224.636719 Z M 191.800781 208.5625 C 192.574219 208.230469 192.210938 209.597656 191.800781 208.5625 Z M 196.613281 211.433594 C 197.851562 208.828125 198.898438 214.332031 196.613281 211.433594 Z M 210.1875 218.992188 C 210.175781 217.992188 210.445312 220.445312 210.1875 218.992188 Z M 209.402344 217.25 C 207.519531 212.59375 211.15625 219.710938 209.402344 217.25 Z M 208.246094 214.195312 C 207.929688 212.273438 209.320312 216.613281 208.246094 214.195312 Z M 210.128906 211.132812 C 208.835938 208.855469 211.761719 201.082031 212.089844 205.902344 C 210.726562 209.65625 211.695312 211.757812 212.644531 206.71875 C 214.402344 202.757812 212.265625 214.542969 210.128906 211.132812 Z M 212.0625 199.578125 C 212.628906 198.882812 212.191406 200.410156 212.0625 199.578125 Z M 208.832031 263.320312 C 208.066406 262.652344 208.929688 263.746094 208.832031 263.320312 Z M 215.488281 266.691406 C 219.191406 267.644531 219.175781 266.117188 215.828125 265.660156 C 214.027344 263.984375 208.347656 262.207031 213.433594 265.453125 C 213.769531 266.308594 214.832031 266.285156 215.488281 266.691406 Z M 202.34375 257.949219 C 204.382812 259.472656 210.027344 262.265625 205.25 258.53125 C 206.859375 256.65625 202.167969 255.660156 203.722656 254.40625 C 199.761719 251.976562 200.597656 252.195312 203.375 252.273438 C 198.613281 250.140625 204.0625 250.300781 203.804688 249.210938 C 201.96875 248.847656 194.6875 245.96875 198.972656 249.445312 C 194.617188 247.222656 197.933594 250.273438 196.617188 249.953125 C 192.164062 248.738281 200.582031 253.347656 195.910156 252.203125 C 198.464844 254.226562 202.785156 257.394531 196.988281 254.34375 C 196.226562 255.445312 201.136719 257.113281 202.34375 257.949219 Z M 209.304688 261.957031 C 217.769531 264.683594 205.152344 258.617188 209.304688 261.957031 Z M 244.945312 283.566406 C 245.054688 281.886719 243.789062 285.003906 244.945312 283.566406 Z M 248.609375 285.109375 C 250.5625 283.21875 248.691406 288.128906 251.84375 284.648438 C 251.878906 282.15625 251.75 280.683594 248.21875 283.710938 C 247.242188 284.253906 246.808594 286.546875 248.609375 285.113281 Z M 190.460938 248.554688 C 189.859375 246.195312 186.257812 246.203125 190.460938 248.554688 Z M 194.371094 251.121094 C 192.917969 248.707031 189.1875 248.9375 194.371094 251.121094 Z M 216.625 264.554688 C 218.800781 266.488281 226.605469 265.972656 219.261719 264.796875 C 218.175781 263.1875 212.363281 263.574219 216.625 264.554688 Z M 247.214844 283.46875 C 250.558594 280.660156 243.972656 284.722656 247.214844 283.46875 Z M 254.167969 288.253906 C 254.191406 287.351562 252.726562 288.648438 254.167969 288.253906 Z M 254.179688 286.988281 C 257.882812 283.066406 250.59375 287.222656 254.179688 286.988281 Z M 180.839844 240.488281 C 177.683594 235.984375 178.878906 233.957031 175.832031 230.277344 C 175.253906 227.460938 170.609375 221.074219 173.433594 227.839844 C 176.011719 231.796875 176.777344 237.921875 180.839844 240.488281 Z M 253.019531 285.742188 C 259.832031 281.332031 250.222656 283.824219 253.019531 285.742188 Z M 258.21875 287.78125 C 261.632812 284.847656 256.058594 287.167969 258.21875 287.78125 Z M 189.300781 243.570312 C 190.277344 242.117188 186.777344 243.382812 189.300781 243.570312 Z M 257.132812 286.390625 C 260.4375 284.257812 256.371094 284.585938 256.535156 286.582031 Z M 212.308594 258.105469 C 212.195312 256.660156 210.5625 258.226562 212.308594 258.105469 Z M 215.078125 259.699219 C 214.195312 257.917969 213.722656 259.976562 215.078125 259.699219 Z M 262.433594 287.828125 C 266.667969 284.773438 259.871094 287.242188 261.546875 288.410156 Z M 260.8125 287.042969 C 264.261719 284.152344 257.175781 288.324219 260.8125 287.042969 Z M 269.09375 292.5625 C 271.40625 291.011719 266.28125 292.0625 269.09375 292.5625 Z M 191.425781 242.523438 C 194.523438 243.21875 203.820312 250.167969 198.339844 243.003906 C 195.527344 242.171875 197.214844 235.296875 194.347656 236.511719 C 196.273438 239.730469 195.929688 241.097656 191.890625 239.070312 C 186.820312 236.589844 189.039062 240.296875 190.035156 241.320312 C 188.679688 241.632812 191.820312 242.496094 191.421875 242.523438 Z M 177.289062 231.347656 C 177.84375 229.046875 172.171875 218.695312 174.613281 226.160156 C 175.492188 227.726562 175.398438 230.6875 177.289062 231.347656 Z M 203.234375 247.359375 C 201.632812 246.023438 203.15625 247.167969 203.234375 247.359375 Z M 207.164062 248.277344 C 207.164062 245.839844 202.820312 247.285156 207.164062 248.277344 Z M 241.261719 269.792969 C 240.609375 268.125 238.691406 269.753906 241.261719 269.792969 Z M 242.898438 270.988281 C 242.652344 270.054688 241.949219 271.167969 242.898438 270.988281 Z M 256.410156 279.511719 C 257.707031 278.550781 254.785156 279.386719 256.410156 279.511719 Z M 184.347656 233.152344 C 188.066406 231.710938 180.363281 232.125 184.347656 233.152344 Z M 238.257812 267.148438 C 238.214844 264.742188 235.886719 267.75 238.257812 267.148438 Z M 182.878906 229.722656 C 185.265625 228.917969 180.667969 229.195312 182.878906 229.722656 Z M 189.808594 233.085938 C 189.769531 232.292969 189.078125 233.386719 189.808594 233.085938 Z M 274.347656 284.980469 C 277.417969 284.359375 284.417969 286.546875 285.546875 284.167969 C 281.816406 284.078125 272.648438 281.53125 272.214844 284.773438 L 273.03125 284.902344 Z M 192.011719 233.640625 C 192.066406 231.199219 190.109375 233.550781 192.011719 233.640625 Z M 173.792969 220.988281 C 172.964844 216.335938 170.644531 220.28125 173.792969 220.988281 Z M 178.136719 222.078125 C 178.191406 220.585938 174.160156 220.734375 178.136719 222.078125 Z M 180.617188 223.300781 C 179.902344 222.71875 180.058594 224.035156 180.617188 223.300781 Z M 196.246094 233.335938 C 196.984375 232.65625 194.503906 232.835938 196.246094 233.335938 Z M 178.96875 220.546875 C 178.546875 217.035156 173.933594 220.023438 178.96875 220.546875 Z M 170.054688 214.761719 C 169.929688 213.140625 169.1875 215.371094 170.054688 214.761719 Z M 171.382812 213.757812 C 171.167969 211.835938 170.242188 214 171.382812 213.757812 Z M 178.703125 218.132812 C 181.800781 216.917969 173.0625 215.613281 178.070312 217.90625 Z M 276.699219 278.730469 C 278.679688 276.910156 274.179688 278.167969 276.699219 278.730469 Z M 288.535156 284.871094 C 289.332031 282.523438 286.535156 285.179688 288.535156 284.871094 Z M 179.453125 214.292969 C 179.777344 212.019531 176.996094 214.746094 179.453125 214.292969 Z M 169.03125 207.304688 C 168.472656 204.09375 168.550781 198.457031 173.902344 200.359375 C 166.757812 201.78125 178.847656 209.25 177.324219 203.351562 C 180.328125 203.5 183.199219 201.574219 181.621094 204.496094 C 187.542969 203.84375 191.644531 198.703125 197.363281 199.425781 C 201.816406 198.832031 206.6875 198.386719 211.488281 196.589844 C 215.433594 196.304688 219.230469 192.054688 217.070312 189.53125 C 211.691406 189.074219 206.054688 189.75 200.109375 190.933594 C 193.515625 192.304688 187.53125 194.910156 180.878906 196.03125 C 174.394531 196.902344 182.179688 198.429688 180.324219 198.773438 C 176.945312 199.949219 184.359375 200.738281 179.886719 201.980469 C 177.125 201.453125 174.25 200.503906 175.429688 197.589844 C 169.21875 198.398438 163.761719 200.976562 168.667969 207.300781 L 169.035156 207.304688 Z M 184 199.675781 C 185.453125 194.308594 191.796875 204.09375 186.382812 200.390625 C 185.738281 199.902344 184.671875 199.507812 184 199.675781 Z M 184.28125 197.070312 C 186.382812 195.507812 185.394531 197.953125 184.28125 197.070312 Z M 186.949219 197.117188 C 187.140625 194.644531 193.058594 198.421875 187.921875 198.003906 Z M 190.597656 195.648438 C 191.933594 194.085938 190.984375 197.03125 190.597656 195.648438 Z M 191.53125 195.023438 C 193.753906 192.351562 204.097656 193.316406 196.523438 194.757812 C 194.496094 193.226562 192.941406 195.660156 191.53125 195.023438 Z M 205.035156 192.9375 C 204.703125 185.644531 211.75 195.527344 205.035156 192.9375 Z M 208.867188 192.914062 C 210.269531 189.242188 214.308594 191.4375 209.519531 192.175781 C 209.621094 192.570312 209.375 194.074219 208.867188 192.914062 Z M 177.941406 212.40625 C 182.125 209.839844 173.496094 210.179688 177.941406 212.40625 Z M 181.039062 213.265625 C 182.503906 211.703125 177.84375 212.632812 181.039062 213.265625 Z M 171.917969 206.789062 C 174.308594 204.949219 169.085938 206.089844 171.917969 206.789062 Z M 295.523438 284.203125 C 295.59375 282.066406 293.695312 285.164062 295.523438 284.203125 Z M 282.964844 275.617188 C 283.320312 273.164062 281.347656 275.832031 282.964844 275.617188 Z M 298.976562 285.03125 C 302.320312 285.042969 309.109375 283.988281 301.835938 283.992188 C 300.691406 284.167969 295.183594 284.132812 298.976562 285.03125 Z M 183.761719 211.757812 C 186.46875 211.574219 187.992188 208.773438 183.234375 208.929688 C 175.859375 208.167969 189.738281 211.460938 182.289062 210.519531 C 181.289062 211.179688 183.699219 211.941406 183.761719 211.757812 Z M 186.144531 212.96875 C 185.859375 211.230469 185.304688 213.890625 186.144531 212.96875 Z M 188.972656 205.417969 C 190.144531 203.960938 187.34375 205.027344 188.972656 205.417969 Z M 179.96875 190.355469 C 184.800781 188.714844 191.40625 186.867188 193.6875 191.167969 C 191.367188 188.371094 192.75 185.617188 194.941406 189.710938 C 198.042969 193.84375 199.59375 187.828125 197.578125 186.4375 C 199.875 189.296875 202.488281 190.648438 199.113281 186.621094 C 202.78125 182.207031 191.777344 187.199219 189.277344 187.148438 C 188.074219 187.6875 176.851562 190.011719 179.96875 190.355469 Z M 182.800781 184.929688 C 185.554688 182.851562 192.328125 186.171875 187.980469 182.859375 C 187.554688 182.484375 178.464844 185.371094 182.800781 184.929688 Z M 192.84375 185.347656 C 196.066406 185.425781 191.453125 181.007812 195.292969 183.011719 C 194.664062 180.949219 190.820312 180.5625 188.941406 179.738281 C 187.878906 181.625 191.105469 185.371094 192.84375 185.347656 Z M 184.5625 176.21875 C 185.675781 174.703125 182.605469 176.988281 184.5625 176.21875 Z M 188.667969 177.199219 C 193.863281 176.511719 187.339844 174.960938 187.617188 177.144531 Z M 181 171.199219 C 177.339844 166.417969 187.882812 172.003906 184.164062 166.996094 C 181.035156 164.503906 178.027344 169.804688 181 171.199219 Z M 227.949219 196.511719 C 229.625 193.539062 221.023438 192.5 226.820312 195.460938 C 227.351562 195.636719 227.234375 196.71875 227.949219 196.511719 Z M 193.882812 307.335938 C 193.511719 308.804688 193.28125 311.265625 193.195312 314.722656 C 193.195312 315.402344 192.890625 315.742188 192.277344 315.742188 C 191.664062 315.742188 191.238281 315.445312 190.996094 314.855469 C 190.339844 313.257812 189.71875 312.140625 189.128906 311.507812 C 188.429688 310.761719 187.5 310.3125 186.339844 310.160156 C 185.09375 309.964844 181.992188 309.863281 177.03125 309.863281 C 175.894531 309.863281 175.148438 309.984375 174.800781 310.226562 C 174.582031 310.378906 174.472656 310.707031 174.472656 311.210938 L 174.472656 326.082031 C 174.472656 326.585938 174.789062 326.824219 175.421875 326.804688 C 177.367188 326.78125 180.1875 326.648438 183.882812 326.410156 C 184.601562 326.320312 185.089844 326.085938 185.339844 325.703125 C 185.59375 325.320312 185.839844 324.332031 186.078125 322.734375 C 186.230469 321.859375 186.746094 321.519531 187.621094 321.714844 C 188.363281 321.871094 188.683594 322.207031 188.574219 322.734375 C 187.960938 325.710938 187.761719 329.585938 187.980469 334.355469 C 188.003906 334.921875 187.644531 335.230469 186.898438 335.273438 C 186.285156 335.339844 185.902344 335.011719 185.75 334.289062 C 185.183594 331.554688 184.128906 330.09375 182.589844 329.90625 C 181.046875 329.71875 178.535156 329.625 175.0625 329.625 C 174.667969 329.625 174.472656 329.769531 174.472656 330.054688 L 174.472656 344.824219 C 174.472656 345.917969 174.875 346.664062 175.683594 347.058594 C 176.320312 347.386719 177.683594 347.679688 179.78125 347.945312 C 180.855469 348.054688 181.324219 348.523438 181.195312 349.355469 C 181.0625 350.078125 180.101562 350.363281 178.308594 350.210938 C 173.128906 349.792969 168.851562 349.816406 165.488281 350.277344 C 164.546875 350.40625 164.078125 350.023438 164.078125 349.128906 C 164.078125 348.554688 164.546875 348.230469 165.488281 348.140625 C 167.628906 347.898438 168.699219 346.019531 168.699219 342.496094 L 168.699219 314.394531 C 168.699219 312.953125 168.441406 311.839844 167.929688 311.0625 C 167.414062 310.285156 166.457031 309.578125 165.0625 308.945312 C 164.1875 308.550781 163.859375 308.015625 164.078125 307.335938 C 164.1875 306.921875 164.363281 306.691406 164.601562 306.648438 C 164.820312 306.582031 165.398438 306.625 166.339844 306.78125 C 167.714844 307 170.964844 307.109375 176.078125 307.109375 C 182.113281 307.109375 187.324219 306.976562 191.71875 306.714844 C 193.183594 306.625 193.917969 306.746094 193.917969 307.074219 C 193.917969 307.164062 193.90625 307.25 193.882812 307.335938 Z M 215.148438 349.007812 C 215.148438 349.882812 214.65625 350.265625 213.671875 350.15625 C 210.65625 349.871094 206.917969 349.914062 202.460938 350.285156 C 201.5625 350.375 201.011719 350.351562 200.800781 350.222656 C 200.59375 350.089844 200.492188 349.730469 200.492188 349.136719 C 200.492188 348.613281 201.085938 348.171875 202.277344 347.808594 C 203.46875 347.449219 204.0625 346.371094 204.0625 344.578125 L 204.0625 314.867188 C 204.0625 313.09375 203.808594 311.792969 203.296875 310.960938 C 202.78125 310.128906 201.878906 309.484375 200.589844 309.023438 C 199.910156 308.78125 199.570312 308.445312 199.570312 308.007812 C 199.570312 307.347656 200.0625 306.855469 201.046875 306.527344 C 202.535156 306.046875 204.078125 305.304688 205.671875 304.296875 C 206.984375 303.507812 207.816406 303.117188 208.164062 303.117188 C 208.972656 303.117188 209.378906 303.671875 209.378906 304.789062 C 209.378906 304.703125 209.335938 305.796875 209.246094 308.070312 C 209.179688 310.238281 209.160156 312.371094 209.179688 314.472656 L 209.3125 343.789062 C 209.3125 345.125 209.640625 346.09375 210.296875 346.695312 C 210.949219 347.296875 212.078125 347.695312 213.671875 347.890625 C 214.65625 348 215.148438 348.371094 215.148438 349.007812 Z M 244.804688 347.074219 C 244.804688 347.53125 243.96875 348.226562 242.296875 349.15625 C 240.625 350.085938 239.285156 350.550781 238.28125 350.550781 C 237.425781 350.550781 236.671875 350.136719 236.019531 349.304688 C 235.363281 348.472656 234.902344 348.058594 234.640625 348.058594 C 234.445312 348.058594 233.40625 348.507812 231.523438 349.402344 C 229.644531 350.300781 227.753906 350.75 225.851562 350.75 C 224.058594 350.75 222.5625 350.222656 221.359375 349.175781 C 220.046875 348.015625 219.390625 346.4375 219.390625 344.445312 C 219.390625 340.660156 223.722656 337.949219 232.378906 336.304688 C 233.863281 336.019531 234.621094 335.417969 234.640625 334.5 L 234.707031 332.398438 C 234.839844 328.808594 233.253906 327.015625 229.953125 327.015625 C 229.011719 327.015625 228.121094 327.859375 227.277344 329.542969 C 226.4375 331.230469 225.226562 332.136719 223.65625 332.269531 C 221.863281 332.441406 220.964844 331.6875 220.964844 330.003906 C 220.964844 328.953125 222.300781 327.726562 224.964844 326.324219 C 227.765625 324.859375 230.453125 324.125 233.035156 324.125 C 237.472656 324.125 239.667969 326.238281 239.625 330.464844 L 239.492188 343.984375 C 239.472656 345.410156 240.074219 346.121094 241.296875 346.121094 C 241.539062 346.121094 241.996094 346.066406 242.671875 345.957031 C 243.351562 345.847656 243.746094 345.792969 243.855469 345.792969 C 244.488281 345.792969 244.804688 346.21875 244.804688 347.074219 Z M 234.707031 339.589844 C 234.730469 339.042969 234.601562 338.679688 234.328125 338.503906 C 234.054688 338.332031 233.625 338.296875 233.035156 338.40625 C 227.765625 339.347656 225.128906 341.066406 225.128906 343.558594 C 225.128906 346.078125 226.496094 347.335938 229.230469 347.335938 C 230.324219 347.335938 231.449219 347.128906 232.605469 346.710938 C 233.964844 346.230469 234.640625 345.652344 234.640625 344.972656 Z M 269.183594 343.296875 C 269.183594 345.617188 268.292969 347.460938 266.511719 348.828125 C 264.730469 350.195312 262.296875 350.878906 259.214844 350.878906 C 257.160156 350.878906 255.105469 350.660156 253.050781 350.222656 C 251.277344 349.828125 250.25 349.46875 249.96875 349.140625 C 249.792969 348.832031 249.707031 347.335938 249.707031 344.644531 C 249.707031 343.484375 249.96875 342.878906 250.492188 342.835938 C 251.015625 342.769531 251.464844 343.054688 251.835938 343.691406 C 253.476562 346.558594 256.121094 347.992188 259.773438 347.992188 C 262.851562 347.992188 264.394531 346.917969 264.394531 344.773438 C 264.394531 343.832031 264.046875 343.042969 263.34375 342.410156 C 262.578125 341.6875 261.09375 340.84375 258.886719 339.882812 C 255.695312 338.460938 253.5625 337.214844 252.492188 336.140625 C 251.332031 335.003906 250.753906 333.472656 250.753906 331.542969 C 250.753906 329.179688 251.660156 327.34375 253.476562 326.03125 C 255.160156 324.757812 257.410156 324.125 260.230469 324.125 C 262 324.125 263.617188 324.265625 265.085938 324.550781 C 266.660156 324.835938 267.476562 325.1875 267.542969 325.601562 C 267.71875 326.828125 268.078125 328.601562 268.625 330.921875 C 268.691406 331.203125 268.382812 331.433594 267.707031 331.609375 C 266.984375 331.761719 266.503906 331.640625 266.265625 331.25 C 264.539062 328.425781 262.351562 327.015625 259.707031 327.015625 C 256.710938 327.015625 255.214844 327.976562 255.214844 329.902344 C 255.214844 330.976562 255.617188 331.828125 256.425781 332.460938 C 257.148438 333.007812 258.84375 333.863281 261.511719 335.023438 C 264.308594 336.226562 266.210938 337.3125 267.214844 338.273438 C 268.527344 339.519531 269.183594 341.195312 269.183594 343.296875 Z M 307.761719 349.039062 C 307.761719 349.808594 307.246094 350.210938 306.21875 350.253906 C 304.6875 350.277344 302.6875 350.386719 300.21875 350.582031 C 298.996094 350.824219 298.121094 350.671875 297.597656 350.125 C 294.140625 346.40625 291.210938 342.507812 288.804688 338.4375 C 288.609375 338.089844 288.359375 337.914062 288.050781 337.914062 C 287.679688 337.914062 287.035156 338.242188 286.117188 338.898438 C 285.089844 339.464844 284.578125 340.277344 284.578125 341.324219 C 284.578125 342.070312 284.597656 343.144531 284.644531 344.546875 C 284.6875 345.945312 285.035156 346.863281 285.691406 347.300781 C 286.152344 347.609375 287.210938 347.847656 288.871094 348.023438 C 289.898438 348.15625 290.414062 348.539062 290.414062 349.171875 C 290.414062 349.675781 290.332031 349.988281 290.167969 350.105469 C 290.003906 350.226562 289.570312 350.253906 288.871094 350.191406 C 286.6875 349.992188 282.992188 350.101562 277.789062 350.519531 C 276.476562 350.628906 275.765625 350.460938 275.65625 350.023438 C 275.613281 349.875 275.589844 349.652344 275.589844 349.367188 C 275.589844 348.691406 276.257812 348.175781 277.59375 347.828125 C 278.796875 347.519531 279.398438 346.109375 279.398438 343.59375 L 279.398438 314.902344 C 279.398438 313.105469 279.222656 311.859375 278.871094 311.160156 C 278.390625 310.261719 277.382812 309.5625 275.855469 309.058594 C 275.132812 308.820312 274.773438 308.480469 274.773438 308.039062 C 274.773438 307.40625 275.285156 306.914062 276.3125 306.5625 C 277.972656 306.007812 279.535156 305.253906 281 304.296875 C 282.203125 303.511719 282.949219 303.117188 283.230469 303.117188 C 284.128906 303.117188 284.578125 303.683594 284.578125 304.824219 C 284.578125 304.667969 284.566406 305.753906 284.542969 308.074219 C 284.519531 310.21875 284.507812 312.363281 284.511719 314.507812 L 284.578125 335.058594 C 284.578125 335.625 284.730469 335.910156 285.035156 335.910156 C 285.363281 335.910156 285.867188 335.625 286.546875 335.058594 C 288.359375 333.632812 290.589844 331.773438 293.234375 329.476562 C 293.757812 328.929688 294.019531 328.492188 294.019531 328.164062 C 294.019531 327.574219 293.136719 327.15625 291.367188 326.917969 C 290.601562 326.828125 290.238281 326.402344 290.28125 325.636719 C 290.347656 324.871094 290.730469 324.542969 291.429688 324.652344 C 293.003906 324.871094 295.300781 324.992188 298.316406 325.011719 C 300.414062 325.035156 302.503906 325.046875 304.578125 325.046875 C 305.257812 325.066406 305.597656 325.472656 305.597656 326.261719 C 305.597656 327.003906 305.058594 327.410156 303.988281 327.476562 C 302.304688 327.539062 300.71875 327.921875 299.234375 328.625 C 297.160156 329.5625 294.9375 331.214844 292.578125 333.582031 C 292.402344 333.710938 292.316406 333.875 292.316406 334.070312 C 292.316406 334.378906 292.6875 335.113281 293.429688 336.273438 C 296.164062 340.429688 298.742188 343.570312 301.167969 345.695312 C 302.722656 347.027344 304.175781 347.695312 305.53125 347.695312 C 306.535156 347.695312 307.160156 347.765625 307.398438 347.910156 C 307.640625 348.050781 307.761719 348.429688 307.761719 349.039062 Z M 307.761719 349.039062 " fill-opacity="1" fill-rule="nonzero"/></g><g fill="#240a4a" fill-opacity="1"><g transform="translate(77.895977, 140.678333)"><g><path d="M 24.671875 -37.90625 L 24.671875 -30.3125 L 11.390625 -30.3125 L 11.390625 -22.78125 L 23.65625 -22.78125 L 23.65625 -15.203125 L 11.390625 -15.203125 L 11.390625 0 L 2.75 0 L 2.75 -37.90625 Z M 24.671875 -37.90625 "/></g></g></g><g fill="#240a4a" fill-opacity="1"><g transform="translate(106.101662, 140.678333)"><g><path d="M 2.75 0 L 2.75 -39.5 L 10.890625 -39.5 L 10.890625 0 Z M 2.75 0 "/></g></g></g><g fill="#240a4a" fill-opacity="1"><g transform="translate(121.904229, 140.678333)"><g><path d="M 4.359375 -2.90625 C 2.160156 -5.3125 1.0625 -8.257812 1.0625 -11.75 C 1.0625 -15.25 2.160156 -18.207031 4.359375 -20.625 C 6.566406 -23.039062 9.367188 -24.25 12.765625 -24.25 C 15.890625 -24.25 18.460938 -23.269531 20.484375 -21.3125 L 20.484375 -23.5625 L 28.625 -23.5625 L 28.625 0 L 20.578125 0 L 20.578125 -2.671875 L 20.484375 -2.671875 C 18.460938 -0.429688 15.890625 0.6875 12.765625 0.6875 C 9.367188 0.6875 6.566406 -0.507812 4.359375 -2.90625 Z M 11.265625 -15.75 C 10.210938 -14.707031 9.6875 -13.375 9.6875 -11.75 C 9.6875 -10.132812 10.191406 -8.8125 11.203125 -7.78125 C 12.210938 -6.757812 13.546875 -6.25 15.203125 -6.25 C 16.796875 -6.25 18.101562 -6.769531 19.125 -7.8125 C 20.15625 -8.851562 20.671875 -10.171875 20.671875 -11.765625 C 20.671875 -13.378906 20.140625 -14.707031 19.078125 -15.75 C 18.023438 -16.789062 16.734375 -17.3125 15.203125 -17.3125 C 13.640625 -17.3125 12.328125 -16.789062 11.265625 -15.75 Z M 11.265625 -15.75 "/></g></g></g><g fill="#240a4a" fill-opacity="1"><g transform="translate(155.43866, 140.678333)"><g><path d="M 13 -24.25 C 14.34375 -24.25 15.671875 -24.097656 16.984375 -23.796875 C 18.304688 -23.492188 19.289062 -23.1875 19.9375 -22.875 L 20.90625 -22.421875 L 18.234375 -17.09375 C 16.398438 -18.070312 14.65625 -18.5625 13 -18.5625 C 12.082031 -18.5625 11.429688 -18.460938 11.046875 -18.265625 C 10.660156 -18.066406 10.46875 -17.691406 10.46875 -17.140625 C 10.46875 -17.015625 10.484375 -16.890625 10.515625 -16.765625 C 10.546875 -16.640625 10.609375 -16.523438 10.703125 -16.421875 C 10.796875 -16.316406 10.878906 -16.222656 10.953125 -16.140625 C 11.035156 -16.066406 11.164062 -15.984375 11.34375 -15.890625 C 11.53125 -15.796875 11.675781 -15.726562 11.78125 -15.6875 C 11.882812 -15.644531 12.054688 -15.578125 12.296875 -15.484375 C 12.546875 -15.390625 12.734375 -15.316406 12.859375 -15.265625 C 12.984375 -15.222656 13.191406 -15.15625 13.484375 -15.0625 C 13.773438 -14.976562 14 -14.921875 14.15625 -14.890625 C 15.101562 -14.609375 15.925781 -14.296875 16.625 -13.953125 C 17.332031 -13.617188 18.078125 -13.160156 18.859375 -12.578125 C 19.640625 -12.003906 20.242188 -11.269531 20.671875 -10.375 C 21.097656 -9.488281 21.3125 -8.476562 21.3125 -7.34375 C 21.3125 -1.988281 17.59375 0.6875 10.15625 0.6875 C 8.46875 0.6875 6.863281 0.425781 5.34375 -0.09375 C 3.832031 -0.613281 2.738281 -1.132812 2.0625 -1.65625 L 1.0625 -2.484375 L 4.359375 -8.046875 C 4.609375 -7.828125 4.929688 -7.570312 5.328125 -7.28125 C 5.722656 -6.988281 6.441406 -6.585938 7.484375 -6.078125 C 8.523438 -5.578125 9.429688 -5.328125 10.203125 -5.328125 C 11.878906 -5.328125 12.71875 -5.894531 12.71875 -7.03125 C 12.71875 -7.550781 12.503906 -7.957031 12.078125 -8.25 C 11.648438 -8.539062 10.921875 -8.867188 9.890625 -9.234375 C 8.867188 -9.597656 8.066406 -9.9375 7.484375 -10.25 C 6.015625 -11.007812 4.847656 -11.867188 3.984375 -12.828125 C 3.128906 -13.796875 2.703125 -15.078125 2.703125 -16.671875 C 2.703125 -19.066406 3.628906 -20.925781 5.484375 -22.25 C 7.335938 -23.582031 9.84375 -24.25 13 -24.25 Z M 13 -24.25 "/></g></g></g><g fill="#240a4a" fill-opacity="1"><g transform="translate(180.199033, 140.678333)"><g><path d="M 29.671875 -23.5625 L 18.46875 -12.3125 L 30.78125 0 L 20.296875 0 L 10.890625 -9.421875 L 10.890625 0 L 2.75 0 L 2.75 -39.5 L 10.890625 -39.5 L 10.890625 -15.34375 L 19.109375 -23.5625 Z M 29.671875 -23.5625 "/></g></g></g><g fill="#240a4a" fill-opacity="1"><g transform="translate(212.033771, 140.678333)"><g><path d="M 22 -37.90625 L 37.296875 0 L 28.015625 0 L 25.21875 -7.578125 L 10.796875 -7.578125 L 8 0 L -1.28125 0 L 14.015625 -37.90625 Z M 22.28125 -15.15625 L 18.046875 -26.1875 L 17.96875 -26.1875 L 13.734375 -15.15625 Z M 22.28125 -15.15625 "/></g></g></g><g fill="#240a4a" fill-opacity="1"><g transform="translate(250.207894, 140.678333)"><g><path d="M 2.75 -37.90625 L 16.578125 -37.90625 C 20.441406 -37.90625 23.566406 -36.90625 25.953125 -34.90625 C 28.335938 -32.914062 29.53125 -30.019531 29.53125 -26.21875 C 29.53125 -22.425781 28.320312 -19.453125 25.90625 -17.296875 C 23.488281 -15.140625 20.378906 -14.0625 16.578125 -14.0625 L 11.390625 -14.0625 L 11.390625 0 L 2.75 0 Z M 11.390625 -20.953125 L 13.828125 -20.953125 C 15.753906 -20.953125 17.335938 -21.34375 18.578125 -22.125 C 19.816406 -22.90625 20.4375 -24.179688 20.4375 -25.953125 C 20.4375 -27.765625 19.816406 -29.0625 18.578125 -29.84375 C 17.335938 -30.625 15.753906 -31.015625 13.828125 -31.015625 L 11.390625 -31.015625 Z M 11.390625 -20.953125 "/></g></g></g><g fill="#240a4a" fill-opacity="1"><g transform="translate(282.961386, 140.678333)"><g><path d="M 11.390625 -37.90625 L 11.390625 0 L 2.75 0 L 2.75 -37.90625 Z M 11.390625 -37.90625 "/></g></g></g></svg>